<?xml version="1.0" encoding="UTF-8"?>
<svg width="44px" height="44px" viewBox="0 0 44 44" version="1.1" xmlns="http://www.w3.org/2000/svg" xmlns:xlink="http://www.w3.org/1999/xlink">
    <title>badges/applepodcasts-badge</title>
    <defs>
        <linearGradient x1="50%" y1="0%" x2="50%" y2="100%" id="linearGradient-1">
            <stop stop-color="#F452FF" offset="0%"></stop>
            <stop stop-color="#832BC1" offset="100%"></stop>
        </linearGradient>
    </defs>
    <g id="Page-1" stroke="none" stroke-width="1" fill="none" fill-rule="evenodd">
        <g id="badges/applepodcasts-badge" transform="translate(1.000000, 0.500000)">
            <g id="Group" fill="#FFFFFF" fill-rule="nonzero" stroke="#9AA0A6" stroke-width="0.5">
                <g id="Rectangle">
                    <rect x="0" y="0" width="43" height="43" rx="8"></rect>
                </g>
            </g>
            <g id="../icons/applepodcasts-icon" transform="translate(7.000000, 6.500000)">
                <path d="M27.44608,24.2687438 C27.1739047,24.9600922 26.5458765,25.9335214 25.6552426,26.6191948 C25.1410472,27.0152208 24.5271508,27.3937766 23.6839194,27.6435878 C22.7850512,27.9099789 21.6778788,28 20.2998665,28 L7.70002225,28 C6.32212119,28 5.21494881,27.9099789 4.31596935,27.6435878 C3.47273797,27.3937766 2.85895276,27.0152208 2.34464615,26.6191948 C1.45412348,25.9334102 0.825983977,24.9600922 0.553808737,24.2687438 C0.0055636803,22.8758097 0,21.2953781 0,20.3000278 L0,20.3000278 L0,7.69997218 L0,7.69997218 C0,6.70462187 0.0055636803,5.12419028 0.553808737,3.73125621 C0.825983977,3.0399078 1.45401221,2.06647856 2.34464615,1.38080515 C2.85884148,0.984779239 3.47273797,0.606223423 4.31596935,0.356412193 C5.21483754,0.0900210627 6.32200992,0 7.70002225,0 L7.70002225,0 L20.2999777,0 L20.2999777,0 C21.6778788,0 22.7850512,0.0900210627 23.6840306,0.356412193 C24.527262,0.606223423 25.1410472,0.984890514 25.6553539,1.38080515 C26.5458765,2.06658983 27.174016,3.0399078 27.4461913,3.73125621 C27.9944363,5.12419028 28,6.70462187 28,7.69997218 L28,20.3000278 C28,21.2952669 27.994325,22.8756984 27.44608,24.2687438 Z" id="XMLID_662_" fill="url(#linearGradient-1)"></path>
                <path d="M27.44608,24.2687438 C27.1739047,24.9600922 26.5458765,25.9335214 25.6552426,26.6191948 C25.1410472,27.0152208 24.5271508,27.3937766 23.6839194,27.6435878 C22.7850512,27.9099789 21.6778788,28 20.2998665,28 L7.70002225,28 C6.32212119,28 5.21494881,27.9099789 4.31596935,27.6435878 C3.47273797,27.3937766 2.85895276,27.0152208 2.34464615,26.6191948 C1.45412348,25.9334102 0.825983977,24.9600922 0.553808737,24.2687438 C0.0055636803,22.8758097 0,21.2953781 0,20.3000278 L0,20.3000278 L0,7.69997218 L0,7.69997218 C0,6.70462187 0.0055636803,5.12419028 0.553808737,3.73125621 C0.825983977,3.0399078 1.45401221,2.06647856 2.34464615,1.38080515 C2.85884148,0.984779239 3.47273797,0.606223423 4.31596935,0.356412193 C5.21483754,0.0900210627 6.32200992,0 7.70002225,0 L7.70002225,0 L20.2999777,0 L20.2999777,0 C21.6778788,0 22.7850512,0.0900210627 23.6840306,0.356412193 C24.527262,0.606223423 25.1410472,0.984890514 25.6553539,1.38080515 C26.5458765,2.06658983 27.174016,3.0399078 27.4461913,3.73125621 C27.9944363,5.12419028 28,6.70462187 28,7.69997218 L28,20.3000278 C28,21.2952669 27.994325,22.8756984 27.44608,24.2687438 Z" id="XMLID_660_"></path>
                <g id="XMLID_648_" transform="translate(4.280896, 4.227839)" fill="#FFFFFF" fill-rule="nonzero">
                    <path d="M11.8559926,12.8418109 C11.4364371,12.4035709 10.6995482,12.1226309 9.82965931,12.1226309 C8.95965931,12.1226309 8.22277042,12.4035709 7.80321486,12.8418109 C7.58432598,13.0705009 7.4685482,13.3049109 7.43210375,13.6388709 C7.36143709,14.2855609 7.40110375,14.8423809 7.47765931,15.7326109 C7.5505482,16.5809309 7.68899264,17.7121709 7.86965931,18.8643109 C7.99821486,19.6842509 8.10265931,20.1267809 8.19777042,20.4436909 C8.35199264,20.9572809 8.92832598,21.4064109 9.82965931,21.4064109 C10.7308815,21.4064109 11.3072149,20.9571709 11.4614371,20.4436909 C11.5565482,20.1267809 11.6609926,19.6842509 11.7895482,18.8643109 C11.9702149,17.7121709 12.1086593,16.5809309 12.1815482,15.7326109 C12.2581038,14.8422709 12.2977704,14.2854509 12.2271038,13.6388709 C12.1906593,13.3050209 12.0748815,13.0705009 11.8559926,12.8418109 Z M7.54365931,8.9397809 C7.54365931,10.1908109 8.56810375,11.2050109 9.83177042,11.2050109 C11.0955482,11.2050109 12.1199926,10.1908109 12.1199926,8.9397809 C12.1199926,7.6886409 11.0955482,6.6744409 9.83177042,6.6744409 C8.56810375,6.6744409 7.54365931,7.6886409 7.54365931,8.9397809 Z M9.80343709,4.03427948e-05 C4.45199264,0.0151508986 0.0669926417,4.3131809 0.00077041949,9.6107809 C-0.0530073583,13.9022109 2.71410375,17.5731309 6.57799264,18.9186509 C6.67177042,18.9513209 6.76699264,18.8742109 6.75221486,18.7768609 C6.7015482,18.4436709 6.65377042,18.1088309 6.60988153,17.7796009 C6.59432598,17.6632209 6.51943709,17.5629009 6.41088153,17.5159309 C3.35688153,16.1950509 1.22432598,13.1627909 1.2585482,9.6503809 C1.30343709,5.0409409 5.10543709,1.2831209 9.76143709,1.2458309 C14.521326,1.2077709 18.4058815,5.0300509 18.4058815,9.7336509 C18.4058815,13.2108609 16.2826593,16.2059409 13.2524371,17.5162609 C13.1438815,17.5632309 13.0694371,17.6638809 13.0539926,17.7801509 C13.0101038,18.1092709 12.962326,18.4440009 12.9117704,18.7768609 C12.8968815,18.8742109 12.9921038,18.9513209 13.0858815,18.9187609 C16.9128815,17.5861109 19.6638815,13.9722809 19.6638815,9.7337609 C19.6636593,4.3570709 15.2377704,-0.0153191014 9.80343709,4.03427948e-05 Z M9.62577042,4.4655309 C12.6594371,4.3492609 15.1647704,6.7587009 15.1647704,9.7366209 C15.1647704,11.2511009 14.5166593,12.6184009 13.4807704,13.5813409 C13.3928815,13.6629609 13.3456593,13.7789009 13.3524371,13.8980309 C13.3731038,14.2602609 13.3655482,14.6122609 13.3412149,15.0098009 C13.3346593,15.1157309 13.4546593,15.1833809 13.5432149,15.1236509 C15.280326,13.9484109 16.4228815,11.9722609 16.4228815,9.7366209 C16.4228815,6.0555809 13.3257704,3.0771109 9.57588153,3.2209909 C6.09099264,3.3547509 3.29510375,6.1992409 3.25043709,9.6517009 C3.22110375,11.9223209 4.37065931,13.9338909 6.13010375,15.1238709 C6.21843709,15.1836009 6.33810375,15.1158409 6.3315482,15.0100209 C6.30710375,14.6122609 6.29965931,14.2602609 6.32021486,13.8980309 C6.32699264,13.7790109 6.27988153,13.6630709 6.19221486,13.5815609 C5.12399264,12.5887009 4.46799264,11.1658509 4.50977042,9.5950509 C4.58332598,6.8307509 6.8345482,4.5725609 9.62577042,4.4655309 Z" id="Shape"></path>
                </g>
            </g>
        </g>
    </g>
</svg>