<?xml version="1.0" encoding="UTF-8"?>
<svg width="44px" height="44px" viewBox="0 0 44 44" version="1.1" xmlns="http://www.w3.org/2000/svg" xmlns:xlink="http://www.w3.org/1999/xlink">
    <title>badges/castro-badge</title>
    <defs>
        <linearGradient x1="0%" y1="0%" x2="0%" y2="100%" id="linearGradient-1">
            <stop stop-color="#00CCBF" offset="0%"></stop>
            <stop stop-color="#00B265" offset="100%"></stop>
        </linearGradient>
        <linearGradient x1="0%" y1="0%" x2="0%" y2="100%" id="linearGradient-2">
            <stop stop-color="#151515" offset="0%"></stop>
            <stop stop-color="#353535" offset="100%"></stop>
        </linearGradient>
    </defs>
    <g id="Page-1" stroke="none" stroke-width="1" fill="none" fill-rule="evenodd">
        <g id="badges/castro-badge" transform="translate(1.000000, 1.000000)" fill-rule="nonzero">
            <g id="Group" fill="#FFFFFF" stroke="#9AA0A6" stroke-width="0.5">
                <g id="Rectangle">
                    <rect x="0" y="0" width="43" height="43" rx="8"></rect>
                </g>
            </g>
            <g id="../icons/castro-icon" transform="translate(7.000000, 7.000000)">
                <path d="M9.76200297,0 L18.237997,0 C21.0489455,0 22.4543104,0 23.9673553,0.478380774 C25.6191703,1.0796175 26.9203825,2.38082961 27.5216739,4.03269935 C28,5.54563494 28,6.95105449 28,9.76200297 L28,18.237997 C28,21.0489455 28,22.4543104 27.5216739,23.9673553 C26.9203825,25.6191704 25.6191703,26.9203825 23.9673553,27.5215646 C22.4543104,28 21.0489455,28 18.237997,28 L9.76200297,28 C6.95105449,28 5.54563494,28 4.03269935,27.5215646 C2.38082961,26.9203825 1.0796175,25.6191704 0.478380774,23.9673553 C0,22.4543104 0,21.0489455 0,18.237997 L0,9.76200297 C0,6.95105449 0,5.54563494 0.478380774,4.03269935 C1.0796175,2.38082961 2.38082961,1.0796175 4.03269935,0.478380774 C5.54563494,0 6.95105449,0 9.76200297,0 L9.76200297,0" id="path-1" fill="url(#linearGradient-1)"></path>
                <path d="M14,2 C20.6274209,2 26,7.37257577 26,13.9999865 C26,20.6274242 20.6274209,26 14,26 C7.37257913,26 2,20.6274242 2,13.9999865 C2,7.37257577 7.37257913,2 14,2 Z" id="path-2" fill="url(#linearGradient-2)"></path>
                <path d="M18.4977936,20.9851905 L16.4922752,18.093015 C17.7518258,17.1344517 18.5700196,15.5862206 18.5700196,13.8390677 C18.5700196,10.9292045 16.3011047,8.57030914 13.5022285,8.57030914 C10.7033793,8.57030914 8.4344644,10.9292045 8.4344644,13.8390677 C8.4344644,15.5938768 9.25985389,17.1480317 10.5287751,18.105589 L8.52175308,21 C6.38826854,19.3945149 5,16.7845294 5,13.8370837 C5,8.95650072 8.80558224,5 13.5,5 C18.1944178,5 22,8.95650072 22,13.8370837 C22,16.775504 20.6201623,19.3784761 18.4977936,20.9851905 Z M13.5188486,11.7045496 C14.6482045,11.7045496 15.5637556,12.6564066 15.5637556,13.8305453 C15.5637556,15.0047118 14.6482045,15.9565409 13.5188486,15.9565409 C12.3894658,15.9565409 11.4739415,15.0047118 11.4739415,13.8305453 C11.4739415,12.6564066 12.3894658,11.7045496 13.5188486,11.7045496 Z" id="path-3" fill="#FFFFFF"></path>
            </g>
        </g>
    </g>
</svg>