<?xml version="1.0" encoding="UTF-8"?>
<svg width="44px" height="44px" viewBox="0 0 44 44" version="1.1" xmlns="http://www.w3.org/2000/svg" xmlns:xlink="http://www.w3.org/1999/xlink">
    <title>badges/castbox-badge</title>
    <defs>
        <linearGradient x1="-8.46197371%" y1="0.125881741%" x2="108.335737%" y2="99.7577903%" id="linearGradient-1">
            <stop stop-color="#FFB768" offset="0%"></stop>
            <stop stop-color="#FF9953" offset="19.39%"></stop>
            <stop stop-color="#FF652E" offset="56.55%"></stop>
            <stop stop-color="#FF4518" offset="84.57%"></stop>
            <stop stop-color="#FF390F" offset="100%"></stop>
        </linearGradient>
    </defs>
    <g id="Page-1" stroke="none" stroke-width="1" fill="none" fill-rule="evenodd">
        <g id="badges/castbox-badge" transform="translate(1.000000, 1.000000)" fill-rule="nonzero">
            <g id="Group" fill="#FFFFFF" stroke="#9AA0A6" stroke-width="0.5">
                <g id="Rectangle">
                    <rect x="0" y="0" width="43" height="43" rx="8"></rect>
                </g>
            </g>
            <g id="../icons/castbox-icon" transform="translate(7.000000, 5.000000)">
                <path d="M12.9044454,0.274435067 L1.08272227,7.19035714 C0.463565538,7.55310252 0,8.35621119 0,9.0674455 L0,22.9325545 C0,23.6437888 0.463565538,24.4468975 1.08272227,24.8096428 L12.9044454,31.7255649 C13.5300183,32.0914784 14.4699817,32.0914784 15.0955546,31.7255649 L26.9172777,24.8096428 C27.5364345,24.4468975 28,23.6437888 28,22.9325545 L28,9.06586146 C28,8.35462715 27.5364345,7.55151848 26.9172777,7.1887731 L15.0955546,0.274435067 C14.4699817,-0.0914783557 13.5316224,-0.0914783557 12.9044454,0.274435067 Z" id="XMLID_19_" fill="url(#linearGradient-1)"></path>
                <path d="M16.051806,11.7894661 C15.5278458,11.7894661 15.103612,12.1953408 15.103612,12.6951237 L15.103612,14.8852554 C15.103612,15.1622052 14.8487552,15.38663 14.5353288,15.38663 C14.2203195,15.38663 13.9654626,15.1622052 13.9654626,14.8852554 L13.9654626,11.9056576 C13.9654626,11.4058747 13.541229,11 13.0172687,11 C12.4933084,11 12.0690747,11.4058747 12.0690747,11.9056576 L12.0690747,14.2931559 C12.0690747,14.5701056 11.8142179,14.7945305 11.4992085,14.7945305 C11.1857821,14.7945305 10.9309253,14.5701056 10.9309253,14.2931559 L10.9309253,13.4272898 C10.9309253,12.9275069 10.5066916,12.5216322 9.9827313,12.5216322 C9.45877104,12.5216322 9.03453731,12.9275069 9.03453731,13.4272898 L9.03453731,15.4773549 C9.03453731,15.7543047 8.7796805,15.9787296 8.46467116,15.9787296 C8.15124478,15.9787296 7.89638797,15.7543047 7.89638797,15.4773549 L7.89638797,15.2386052 C7.89638797,14.7149472 7.47215424,14.2915642 6.94819399,14.2915642 C6.42423368,14.2915642 6,14.7165389 6,15.2386052 L6,18.0829113 C6,18.6065693 6.42423368,19.0315439 6.94819399,19.0315439 C7.47057128,19.0315439 7.89638797,18.6065693 7.89638797,18.0829113 L7.89638797,17.8441615 C7.89638797,17.5672117 8.15124478,17.3427868 8.46467116,17.3427868 C8.7796805,17.3427868 9.03453731,17.5672117 9.03453731,17.8441615 L9.03453731,21.0943424 C9.03453731,21.5941253 9.45877104,22 9.9827313,22 C10.5051086,22 10.9309253,21.5941253 10.9309253,21.0943424 L10.9309253,16.6599624 C10.9309253,16.3830126 11.1857821,16.1585878 11.4992085,16.1585878 C11.8142179,16.1585878 12.0690747,16.3830126 12.0690747,16.6599624 L12.0690747,18.8946607 C12.0690747,19.3944436 12.4933084,19.8003184 13.0172687,19.8003184 C13.541229,19.8003184 13.9654626,19.3944436 13.9654626,18.8946607 L13.9654626,17.252062 C13.9654626,16.9751121 14.2203195,16.7506873 14.5353288,16.7506873 C14.8487552,16.7506873 15.103612,16.9751121 15.103612,17.252062 L15.103612,19.007669 C15.103612,19.5074519 15.5278458,19.9133266 16.051806,19.9133266 C16.5757663,19.9133266 17,19.5074519 17,19.007669 L17,12.6935321 C17,12.1953408 16.5757663,11.7894661 16.051806,11.7894661" id="XMLID_18_" fill="#FFFFFF"></path>
                <path d="M19,15 C18.4474124,15 18,15.3746694 18,15.836027 L18,19.1639729 C18,19.6253305 18.4474124,20 19,20 C19.5525877,20 20,19.6253305 20,19.1639729 L20,15.836027 C19.9983306,15.3746694 19.5509182,15 19,15" id="XMLID_17_" fill="#FFFFFF"></path>
                <path d="M22,16 C21.4474123,16 21,16.4494712 21,17.0029377 L21,17.9970623 C21,18.5505288 21.4474123,19 22,19 C22.5525876,19 23,18.5505288 23,17.9970623 L23,17.0029377 C23,16.4494712 22.5525876,16 22,16" id="XMLID_16_" fill="#FFFFFF"></path>
            </g>
        </g>
    </g>
</svg>