<?xml version="1.0" encoding="UTF-8"?>
<svg width="44px" height="44px" viewBox="0 0 44 44" version="1.1" xmlns="http://www.w3.org/2000/svg" xmlns:xlink="http://www.w3.org/1999/xlink">
    <title>badges/overcast-badge</title>
    <g id="Page-1" stroke="none" stroke-width="1" fill="none" fill-rule="evenodd">
        <g id="badges/overcast-badge" transform="translate(1.000000, 1.000000)">
            <g id="Group" fill="#FFFFFF" fill-rule="nonzero" stroke="#9AA0A6" stroke-width="0.5">
                <g id="Rectangle">
                    <rect x="0" y="0" width="43" height="43" rx="8"></rect>
                </g>
            </g>
            <g id="../icons/overcast-icon" transform="translate(7.000000, 7.000000)" fill="#FC7E0F">
                <path d="M14,28 C6.24155,28 0,21.75845 0,14 C0,6.24155 6.24155,0 14,0 C21.75845,0 28,6.24155 28,14 C28,21.75845 21.75845,28 14,28 Z M14,22.45845 L15.05,21.40845 L14,17.38345 L12.95,21.40845 L14,22.45845 Z M12.65845,22.4 L12.13345,24.38345 L13.35845,23.15845 L12.65845,22.4 Z M15.34155,22.4 L14.64155,23.1 L15.86655,24.325 L15.34155,22.4 Z M16.33345,26.01655 L14,23.68345 L11.66655,26.01655 C12.425,26.13345 13.18345,26.25 14,26.25 C14.81655,26.25 15.575,26.19155 16.33345,26.01655 Z M14,1.75 C7.23345,1.75 1.75,7.23345 1.75,14 C1.75,19.36655 5.19155,23.91655 9.975,25.55 L12.6,15.80845 C12.01655,15.4 11.66655,14.7 11.66655,13.94155 C11.66655,12.65845 12.71655,11.60845 14,11.60845 C15.28345,11.60845 16.33345,12.65845 16.33345,13.94155 C16.33345,14.7 15.98345,15.34155 15.4,15.80845 L18.025,25.55 C22.80845,23.91655 26.25,19.36655 26.25,14 C26.25,7.23345 20.76655,1.75 14,1.75 Z M21.99155,20.06655 C21.7,20.41655 21.175,20.53345 20.76655,20.24155 C20.35845,19.95 20.3,19.425 20.59155,19.075 C20.59155,19.075 22.16655,16.975 22.16655,14 C22.16655,11.025 20.59155,8.925 20.59155,8.925 C20.3,8.575 20.35845,8.05 20.76655,7.75845 C21.175,7.46655 21.7,7.58345 21.99155,7.93345 C22.10845,8.05 23.91655,10.44155 23.91655,14 C23.91655,17.55845 22.10845,19.95 21.99155,20.06655 Z M17.73345,17.79155 C17.38345,17.44155 17.44155,16.8 17.79155,16.45 C17.79155,16.45 18.66655,15.51655 18.66655,14 C18.66655,12.48345 17.79155,11.60845 17.79155,11.55 C17.44155,11.2 17.44155,10.61655 17.73345,10.20845 C18.08345,9.8 18.60845,9.8 18.95845,10.15 C19.01655,10.20845 20.41655,11.66655 20.41655,14 C20.41655,16.33345 19.01655,17.79155 18.95845,17.85 C18.60845,18.2 18.08345,18.14155 17.73345,17.79155 Z M10.26655,17.79155 C9.91655,18.14155 9.39155,18.2 9.04155,17.85 C8.98345,17.73345 7.58345,16.33345 7.58345,14 C7.58345,11.66655 8.98345,10.26655 9.04155,10.15 C9.39155,9.8 9.975,9.8 10.26655,10.20845 C10.61655,10.55845 10.55845,11.2 10.20845,11.55 C10.20845,11.60845 9.33345,12.48345 9.33345,14 C9.33345,15.51655 10.20845,16.45 10.20845,16.45 C10.55845,16.8 10.61655,17.38345 10.26655,17.79155 Z M7.23345,20.24155 C6.825,20.53345 6.3,20.41655 6.00845,20.06655 C5.89155,19.95 4.08345,17.55845 4.08345,14 C4.08345,10.44155 5.89155,8.05 6.00845,7.93345 C6.3,7.58345 6.825,7.46655 7.23345,7.75845 C7.64155,8.05 7.7,8.575 7.40845,8.925 C7.40845,8.925 5.83345,11.025 5.83345,14 C5.83345,16.975 7.40845,19.075 7.40845,19.075 C7.7,19.425 7.58345,19.95 7.23345,20.24155 Z" id="overcastCanvas-bezier"></path>
            </g>
        </g>
    </g>
</svg>