<?xml version="1.0" encoding="UTF-8"?>
<svg width="44px" height="44px" viewBox="0 0 44 44" version="1.1" xmlns="http://www.w3.org/2000/svg" xmlns:xlink="http://www.w3.org/1999/xlink">
    <title>badges/pocketcasts-badge</title>
    <defs>
        <polygon id="path-1" points="0 0.79651282 9.26754394 0.79651282 9.26754394 14.8414132 0 14.8414132"></polygon>
    </defs>
    <g id="Page-1" stroke="none" stroke-width="1" fill="none" fill-rule="evenodd">
        <g id="badges/pocketcasts-badge" transform="translate(1.000000, 1.000000)">
            <g id="Group" fill="#FFFFFF" fill-rule="nonzero" stroke="#9AA0A6" stroke-width="0.5">
                <g id="Rectangle">
                    <rect x="0" y="0" width="43" height="43" rx="8"></rect>
                </g>
            </g>
            <g id="../icons/pocketcasts-icon" transform="translate(7.000000, 7.000000)" fill-rule="nonzero">
                <g id="Group">
                    <path d="M28,14 C28,21.7321482 21.7321482,28 14,28 C6.26785185,28 0,21.7321482 0,14 C0,6.26785185 6.26785185,0 14,0 C21.7321482,0 28,6.26785185 28,14" id="Fill-23" fill="#F43E37"></path>
                    <g id="Glyph" transform="translate(3.111111, 3.111111)" fill="#FFFFFF">
                        <path d="M0,10.7692308 C0,4.82154885 4.82154885,0 10.7692308,0 C16.7169127,0 21.5384615,4.82154885 21.5384615,10.7692308 L18.8461538,10.7692308 C18.8461538,6.30846933 15.2299922,2.69230769 10.7692308,2.69230769 C6.30846933,2.69230769 2.69230769,6.30846933 2.69230769,10.7692308 C2.69230769,15.2299922 6.30846933,18.8461538 10.7692308,18.8461538 L10.7692308,21.5384615 C4.82154885,21.5384615 0,16.7169127 0,10.7692308 Z M10.7692308,17.2307692 C7.20062162,17.2307692 4.30769231,14.3378399 4.30769231,10.7692308 C4.30769231,7.20062162 7.20062162,4.30769231 10.7692308,4.30769231 C14.3378399,4.30769231 17.2307692,7.20062162 17.2307692,10.7692308 L14.8811189,10.7692308 C14.8811189,8.49829767 13.0401639,6.65734266 10.7692308,6.65734266 C8.49829767,6.65734266 6.65734266,8.49829767 6.65734266,10.7692308 C6.65734266,13.0401639 8.49829767,14.8811189 10.7692308,14.8811189 L10.7692308,17.2307692 Z" id="Path"></path>
                    </g>
                </g>
            </g>
        </g>
    </g>
</svg>