<?xml version="1.0" encoding="UTF-8"?>
<svg width="44px" height="44px" viewBox="0 0 44 44" version="1.1" xmlns="http://www.w3.org/2000/svg" xmlns:xlink="http://www.w3.org/1999/xlink">
    <title>badges/spotify-badge</title>
    <g id="Page-1" stroke="none" stroke-width="1" fill="none" fill-rule="evenodd">
        <g id="badges/spotify-badge" transform="translate(1.000000, 1.000000)" fill-rule="nonzero">
            <g id="Group" fill="#FFFFFF" stroke="#9AA0A6" stroke-width="0.5">
                <g id="Rectangle">
                    <rect x="0" y="0" width="43" height="43" rx="8"></rect>
                </g>
            </g>           
            <path d="M21.0000836,7 C28.7321941,7 35,13.2678433 35,20.9998328 C35,28.7323239 28.7321941,35 21.0000836,35 C13.2681403,35 7,28.7323239 7,20.9998328 C7,13.2678433 13.2681403,7 21.0000836,7 Z M13.6925632,24.6701978 C13.2121554,24.7824389 12.9128178,25.2725523 13.0227228,25.7644166 C13.1321159,26.2561058 13.6097931,26.5644623 14.0891768,26.451696 C19.0639144,25.2856849 23.2880894,25.7610896 26.644288,27.8656528 C27.06377,28.1290077 27.6122712,27.993478 27.8689437,27.5614988 C28.1257869,27.1307455 27.9935255,26.5677893 27.5735314,26.3046094 C23.8065543,23.9428199 19.1366155,23.3931715 13.6925632,24.6701978 Z M12.7735871,19.8498616 C12.1982411,20.0375531 11.8730021,20.6882168 12.0468079,21.3054536 C12.2217825,21.9214389 12.8306875,22.2694726 13.4072023,22.0830324 C17.8525261,20.6383445 23.5821103,21.3546108 27.3395568,23.8274904 C27.8519586,24.16462 28.522806,23.99248 28.8388623,23.4431698 C29.1539168,22.8951107 28.9926329,22.1765206 28.480231,21.838676 C24.1646355,18.9991725 17.8518582,18.2001432 12.7735871,19.8498616 Z M11.9326581,15.8482788 C11.2380147,16.0509247 10.8464915,16.7553529 11.0568473,17.4222481 C11.2672029,18.0888212 12.0012669,18.4651176 12.6954069,18.2629549 C17.0180978,17.0031029 24.4872327,17.2405434 29.0154146,19.8229098 C29.6382619,20.1789095 30.4452962,19.9812572 30.8156831,19.3816958 C31.1859023,18.783101 30.9810823,18.0087616 30.3565576,17.652762 C25.1436295,14.6812122 16.8948033,14.4018893 11.9326581,15.8482788 Z" id="../icons/spotify-icon" fill="#1ED760"></path>
        </g>
    </g>
</svg>